<mxfile modified="2022-02-12T11:10:02.347Z" host="app.diagrams.net" agent="5.0 (Windows NT 10.0; Win64; x64) AppleWebKit/537.36 (KHTML, like Gecko) Chrome/98.0.4758.82 Safari/537.36" etag="TfxGQgUR9RdasQzpmG9L" version="16.5.6" type="github">
  <diagram id="f106602c-feb2-e66a-4537-3a34d633f6aa" name="Page-1">
    <mxGraphModel dx="1237" dy="696" grid="1" gridSize="10" guides="1" tooltips="1" connect="1" arrows="1" fold="1" page="1" pageScale="1" pageWidth="1169" pageHeight="827" background="none" math="0" shadow="0">
      <root>
        <mxCell id="0" />
        <mxCell id="1" parent="0" />
        <mxCell id="14" value="&lt;b&gt;Google &lt;/b&gt;Cloud Platform" style="fillColor=#F6F6F6;strokeColor=none;shadow=0;gradientColor=none;fontSize=14;align=left;spacing=10;fontColor=#717171;9E9E9E;verticalAlign=top;spacingTop=-4;fontStyle=0;spacingLeft=40;html=1;" parent="1" vertex="1">
          <mxGeometry x="570" y="123" width="410" height="581" as="geometry" />
        </mxCell>
        <mxCell id="15" value="" style="shape=mxgraph.gcp2.google_cloud_platform;fillColor=#F6F6F6;strokeColor=none;shadow=0;gradientColor=none;" parent="14" vertex="1">
          <mxGeometry width="23" height="20" relative="1" as="geometry">
            <mxPoint x="20" y="10" as="offset" />
          </mxGeometry>
        </mxCell>
        <mxCell id="FHsYfPul3T1H2HVqNf66-516" value="Cloud Scheduler" style="html=1;fillColor=#5184F3;strokeColor=none;verticalAlign=top;labelPosition=center;verticalLabelPosition=bottom;align=center;fontSize=11;fontStyle=1;fontColor=#999999;shape=mxgraph.gcp2.cloud_scheduler" vertex="1" parent="14">
          <mxGeometry x="60" y="267.77000000000004" width="40" height="44.95" as="geometry" />
        </mxCell>
        <mxCell id="FHsYfPul3T1H2HVqNf66-520" value="Cloud&#xa;Functions" style="sketch=0;html=1;fillColor=#5184F3;strokeColor=none;verticalAlign=top;labelPosition=center;verticalLabelPosition=bottom;align=center;spacingTop=-6;fontSize=11;fontStyle=1;fontColor=#999999;shape=mxgraph.gcp2.hexIcon;prIcon=cloud_functions" vertex="1" parent="14">
          <mxGeometry x="180" y="261" width="66" height="58.5" as="geometry" />
        </mxCell>
        <mxCell id="FHsYfPul3T1H2HVqNf66-524" style="edgeStyle=orthogonalEdgeStyle;rounded=0;html=1;labelBackgroundColor=none;startArrow=none;startFill=0;endArrow=blockThin;endFill=1;jettySize=auto;orthogonalLoop=1;strokeColor=#4284F3;strokeWidth=2;fontSize=10;fontColor=#999999;align=center;dashed=0;endSize=4;startSize=4;entryX=0.175;entryY=0.5;entryDx=0;entryDy=0;entryPerimeter=0;" edge="1" parent="14" target="FHsYfPul3T1H2HVqNf66-520">
          <mxGeometry relative="1" as="geometry">
            <Array as="points">
              <mxPoint x="150" y="290" />
              <mxPoint x="150" y="290" />
            </Array>
            <mxPoint x="110" y="290" as="sourcePoint" />
            <mxPoint x="180" y="281" as="targetPoint" />
          </mxGeometry>
        </mxCell>
        <mxCell id="FHsYfPul3T1H2HVqNf66-527" value="Recipes Database" style="rounded=1;absoluteArcSize=1;arcSize=2;html=1;strokeColor=none;gradientColor=none;shadow=0;dashed=0;strokeColor=none;fontSize=12;fontColor=#9E9E9E;align=left;verticalAlign=top;spacing=10;spacingTop=-4;fillColor=#E1F5FE;" vertex="1" parent="14">
          <mxGeometry x="260" y="319.5" width="130" height="149" as="geometry" />
        </mxCell>
        <mxCell id="FHsYfPul3T1H2HVqNf66-528" value="" style="strokeColor=#dddddd;fillColor=#ffffff;shadow=1;strokeWidth=1;rounded=1;absoluteArcSize=1;arcSize=2;fontSize=10;fontColor=#999999;align=left;html=1;" vertex="1" parent="14">
          <mxGeometry x="270" y="359.5" width="110" height="89" as="geometry" />
        </mxCell>
        <mxCell id="511" value="Clients &amp;amp; Feedback&lt;br&gt;&amp;nbsp;Database" style="rounded=1;absoluteArcSize=1;arcSize=2;html=1;strokeColor=none;gradientColor=none;shadow=0;dashed=0;strokeColor=none;fontSize=12;fontColor=#9E9E9E;align=left;verticalAlign=top;spacing=10;spacingTop=-4;fillColor=#E1F5FE;" parent="14" vertex="1">
          <mxGeometry x="260" y="31" width="130" height="229" as="geometry" />
        </mxCell>
        <mxCell id="505" value="" style="strokeColor=#dddddd;fillColor=#ffffff;shadow=1;strokeWidth=1;rounded=1;absoluteArcSize=1;arcSize=2;fontSize=10;fontColor=#999999;align=left;html=1;" parent="14" vertex="1">
          <mxGeometry x="270" y="177" width="110" height="60" as="geometry" />
        </mxCell>
        <mxCell id="506" value="Cloud&#xa;Bigtable" style="dashed=0;connectable=0;html=1;fillColor=#5184F3;strokeColor=none;shape=mxgraph.gcp2.hexIcon;prIcon=cloud_bigtable;part=1;labelPosition=right;verticalLabelPosition=middle;align=left;verticalAlign=middle;spacingLeft=5;fontColor=#999999;fontSize=12;" parent="505" vertex="1">
          <mxGeometry y="0.5" width="44" height="39" relative="1" as="geometry">
            <mxPoint x="5" y="-19.5" as="offset" />
          </mxGeometry>
        </mxCell>
        <mxCell id="516" value="or" style="text;html=1;resizable=0;points=[];autosize=1;align=left;verticalAlign=top;spacingTop=-4;fontSize=10;fontColor=#999999;" parent="14" vertex="1">
          <mxGeometry x="315" y="157" width="20" height="10" as="geometry" />
        </mxCell>
        <mxCell id="503" value="" style="strokeColor=#dddddd;fillColor=#ffffff;shadow=1;strokeWidth=1;rounded=1;absoluteArcSize=1;arcSize=2;fontSize=10;fontColor=#999999;align=left;html=1;" parent="14" vertex="1">
          <mxGeometry x="270" y="87" width="110" height="60" as="geometry" />
        </mxCell>
        <mxCell id="504" value="Cloud&#xa;SQL" style="dashed=0;connectable=0;html=1;fillColor=#5184F3;strokeColor=none;shape=mxgraph.gcp2.hexIcon;prIcon=cloud_sql;part=1;labelPosition=right;verticalLabelPosition=middle;align=left;verticalAlign=middle;spacingLeft=5;fontColor=#999999;fontSize=12;" parent="503" vertex="1">
          <mxGeometry y="0.5" width="44" height="39" relative="1" as="geometry">
            <mxPoint x="5" y="-19.5" as="offset" />
          </mxGeometry>
        </mxCell>
        <mxCell id="FHsYfPul3T1H2HVqNf66-549" value="Cloud&#xa;Firestore" style="sketch=0;html=1;fillColor=#5184F3;strokeColor=none;verticalAlign=top;labelPosition=center;verticalLabelPosition=bottom;align=center;spacingTop=-6;fontSize=11;fontStyle=1;fontColor=#999999;shape=mxgraph.gcp2.hexIcon;prIcon=cloud_firestore" vertex="1" parent="14">
          <mxGeometry x="292" y="359.5" width="66" height="58.5" as="geometry" />
        </mxCell>
        <mxCell id="FHsYfPul3T1H2HVqNf66-530" style="edgeStyle=orthogonalEdgeStyle;rounded=0;html=1;labelBackgroundColor=none;startArrow=none;startFill=0;endArrow=blockThin;endFill=1;jettySize=auto;orthogonalLoop=1;strokeColor=#4284F3;strokeWidth=2;fontSize=10;fontColor=#999999;align=center;dashed=0;endSize=4;startSize=4;exitX=0.5;exitY=0;exitDx=0;exitDy=0;entryX=0.825;entryY=0.5;entryDx=0;entryDy=0;entryPerimeter=0;" edge="1" parent="14" source="FHsYfPul3T1H2HVqNf66-527" target="FHsYfPul3T1H2HVqNf66-520">
          <mxGeometry relative="1" as="geometry">
            <Array as="points">
              <mxPoint x="325" y="290" />
            </Array>
            <mxPoint x="334" y="237" as="sourcePoint" />
            <mxPoint x="240" y="277" as="targetPoint" />
          </mxGeometry>
        </mxCell>
        <mxCell id="FHsYfPul3T1H2HVqNf66-525" style="edgeStyle=orthogonalEdgeStyle;rounded=0;html=1;labelBackgroundColor=none;startArrow=none;startFill=0;endArrow=blockThin;endFill=1;jettySize=auto;orthogonalLoop=1;strokeColor=#4284F3;strokeWidth=2;fontSize=10;fontColor=#999999;align=center;dashed=0;endSize=4;startSize=4;exitX=0.5;exitY=1;exitDx=0;exitDy=0;entryX=0.825;entryY=0.5;entryDx=0;entryDy=0;entryPerimeter=0;" edge="1" parent="14" source="511" target="FHsYfPul3T1H2HVqNf66-520">
          <mxGeometry relative="1" as="geometry">
            <Array as="points">
              <mxPoint x="325" y="290" />
              <mxPoint x="235" y="290" />
            </Array>
            <mxPoint x="324" y="227" as="sourcePoint" />
            <mxPoint x="240" y="287" as="targetPoint" />
          </mxGeometry>
        </mxCell>
        <mxCell id="FHsYfPul3T1H2HVqNf66-550" value="Google Services&lt;br&gt;Recommender" style="sketch=0;html=1;dashed=0;whitespace=wrap;fillColor=#2875E2;strokeColor=#ffffff;points=[[0.005,0.63,0],[0.1,0.2,0],[0.9,0.2,0],[0.5,0,0],[0.995,0.63,0],[0.72,0.99,0],[0.5,1,0],[0.28,0.99,0]];shape=mxgraph.kubernetes.icon;prIcon=api;verticalAlign=top;labelPosition=center;verticalLabelPosition=bottom;align=center;fontSize=11;fontColor=#999999;fontStyle=1" vertex="1" parent="14">
          <mxGeometry x="100" y="364.75" width="50" height="48" as="geometry" />
        </mxCell>
        <mxCell id="501" value="" style="strokeColor=#dddddd;fillColor=#ffffff;shadow=1;strokeWidth=1;rounded=1;absoluteArcSize=1;arcSize=2;fontSize=10;fontColor=#999999;align=left;html=1;" parent="14" vertex="1">
          <mxGeometry x="230" y="477" width="170" height="60" as="geometry" />
        </mxCell>
        <mxCell id="502" value="&lt;font color=&quot;#000000&quot;&gt;Analytics Backend&lt;/font&gt;&lt;br&gt;BigQuery" style="dashed=0;connectable=0;html=1;fillColor=#5184F3;strokeColor=none;shape=mxgraph.gcp2.hexIcon;prIcon=bigquery;part=1;labelPosition=right;verticalLabelPosition=middle;align=left;verticalAlign=middle;spacingLeft=5;fontColor=#999999;fontSize=12;" parent="501" vertex="1">
          <mxGeometry y="0.5" width="44" height="39" relative="1" as="geometry">
            <mxPoint x="5" y="-19.5" as="offset" />
          </mxGeometry>
        </mxCell>
        <mxCell id="512" style="edgeStyle=orthogonalEdgeStyle;rounded=0;html=1;labelBackgroundColor=none;startArrow=blockThin;startFill=1;endArrow=blockThin;endFill=1;jettySize=auto;orthogonalLoop=1;strokeColor=#4284F3;strokeWidth=2;fontSize=10;fontColor=#999999;align=center;dashed=0;endSize=4;startSize=4;" parent="14" target="501" edge="1">
          <mxGeometry relative="1" as="geometry">
            <mxPoint x="520" y="507" as="sourcePoint" />
            <Array as="points" />
          </mxGeometry>
        </mxCell>
        <mxCell id="FHsYfPul3T1H2HVqNf66-560" style="edgeStyle=orthogonalEdgeStyle;rounded=0;html=1;labelBackgroundColor=none;startArrow=blockThin;startFill=1;endArrow=blockThin;endFill=1;jettySize=auto;orthogonalLoop=1;strokeColor=#4284F3;strokeWidth=2;fontSize=10;fontColor=#999999;align=center;dashed=0;endSize=4;startSize=4;entryX=0.175;entryY=0.5;entryDx=0;entryDy=0;entryPerimeter=0;exitX=0.5;exitY=0;exitDx=0;exitDy=0;exitPerimeter=0;" edge="1" parent="14" source="FHsYfPul3T1H2HVqNf66-550" target="FHsYfPul3T1H2HVqNf66-520">
          <mxGeometry relative="1" as="geometry">
            <Array as="points">
              <mxPoint x="125" y="345" />
              <mxPoint x="150" y="345" />
              <mxPoint x="150" y="290" />
            </Array>
            <mxPoint x="120" y="300" as="sourcePoint" />
            <mxPoint x="201.54999999999973" y="300.2500000000002" as="targetPoint" />
          </mxGeometry>
        </mxCell>
        <mxCell id="510" style="edgeStyle=orthogonalEdgeStyle;rounded=0;html=1;labelBackgroundColor=none;startArrow=blockThin;startFill=1;endArrow=blockThin;endFill=1;jettySize=auto;orthogonalLoop=1;strokeColor=#4284F3;strokeWidth=2;fontSize=10;fontColor=#999999;align=center;dashed=0;endSize=4;startSize=4;exitX=-0.006;exitY=0.157;exitDx=0;exitDy=0;exitPerimeter=0;" parent="14" source="14" target="511" edge="1">
          <mxGeometry relative="1" as="geometry">
            <mxPoint x="139" y="57" as="targetPoint" />
            <Array as="points">
              <mxPoint x="-3" y="57" />
            </Array>
          </mxGeometry>
        </mxCell>
        <mxCell id="2" value="Architecture: Front Forms &amp;gt; Backend Database" style="fillColor=#4DA1F5;strokeColor=none;shadow=1;gradientColor=none;fontSize=14;align=left;spacingLeft=50;fontColor=#ffffff;html=1;" parent="1" vertex="1">
          <mxGeometry x="160" y="60" width="831" height="40" as="geometry" />
        </mxCell>
        <mxCell id="495" value="Landing Client" style="strokeColor=#dddddd;fillColor=#ffffff;shadow=1;strokeWidth=1;rounded=1;absoluteArcSize=1;arcSize=2;labelPosition=center;verticalLabelPosition=middle;align=center;verticalAlign=bottom;spacingLeft=0;fontColor=#999999;fontSize=12;whiteSpace=wrap;spacingBottom=2;html=1;" parent="1" vertex="1">
          <mxGeometry x="229" y="197.5" width="70" height="85" as="geometry" />
        </mxCell>
        <mxCell id="496" value="" style="dashed=0;connectable=0;html=1;fillColor=#757575;strokeColor=none;shape=mxgraph.gcp2.laptop;part=1;" parent="495" vertex="1">
          <mxGeometry x="0.5" width="50" height="33" relative="1" as="geometry">
            <mxPoint x="-25" y="18.5" as="offset" />
          </mxGeometry>
        </mxCell>
        <mxCell id="497" value="" style="strokeColor=#dddddd;fillColor=#ffffff;shadow=1;strokeWidth=1;rounded=1;absoluteArcSize=1;arcSize=2;fontSize=10;fontColor=#999999;align=left;html=1;" parent="1" vertex="1">
          <mxGeometry x="369" y="190" width="150" height="44" as="geometry" />
        </mxCell>
        <mxCell id="498" value="New Client Form" style="dashed=0;connectable=0;html=1;fillColor=#757575;strokeColor=none;shape=mxgraph.gcp2.frontend_platform_services;part=1;labelPosition=right;verticalLabelPosition=middle;align=left;verticalAlign=middle;spacingLeft=5;fontColor=#000000;fontSize=12;" parent="497" vertex="1">
          <mxGeometry y="0.5" width="32" height="32" relative="1" as="geometry">
            <mxPoint x="5" y="-16" as="offset" />
          </mxGeometry>
        </mxCell>
        <mxCell id="FHsYfPul3T1H2HVqNf66-531" value="Kitchen Front" style="strokeColor=#dddddd;fillColor=#ffffff;shadow=1;strokeWidth=1;rounded=1;absoluteArcSize=1;arcSize=2;labelPosition=center;verticalLabelPosition=middle;align=center;verticalAlign=bottom;spacingLeft=0;fontColor=#999999;fontSize=12;whiteSpace=wrap;spacingBottom=2;html=1;" vertex="1" parent="1">
          <mxGeometry x="420" y="430" width="70" height="85" as="geometry" />
        </mxCell>
        <mxCell id="FHsYfPul3T1H2HVqNf66-532" value="" style="dashed=0;connectable=0;html=1;fillColor=#757575;strokeColor=none;shape=mxgraph.gcp2.laptop;part=1;" vertex="1" parent="FHsYfPul3T1H2HVqNf66-531">
          <mxGeometry x="0.5" width="50" height="33" relative="1" as="geometry">
            <mxPoint x="-25" y="18.5" as="offset" />
          </mxGeometry>
        </mxCell>
        <mxCell id="FHsYfPul3T1H2HVqNf66-533" value="Delivery Front" style="strokeColor=#dddddd;fillColor=#ffffff;shadow=1;strokeWidth=1;rounded=1;absoluteArcSize=1;arcSize=2;labelPosition=center;verticalLabelPosition=middle;align=center;verticalAlign=bottom;spacingLeft=0;fontColor=#999999;fontSize=12;whiteSpace=wrap;spacingBottom=2;html=1;" vertex="1" parent="1">
          <mxGeometry x="420" y="530" width="70" height="85" as="geometry" />
        </mxCell>
        <mxCell id="FHsYfPul3T1H2HVqNf66-534" value="" style="dashed=0;connectable=0;html=1;fillColor=#757575;strokeColor=none;shape=mxgraph.gcp2.laptop;part=1;" vertex="1" parent="FHsYfPul3T1H2HVqNf66-533">
          <mxGeometry x="0.5" width="50" height="33" relative="1" as="geometry">
            <mxPoint x="-25" y="18.5" as="offset" />
          </mxGeometry>
        </mxCell>
        <mxCell id="FHsYfPul3T1H2HVqNf66-535" style="edgeStyle=orthogonalEdgeStyle;rounded=0;html=1;labelBackgroundColor=none;startArrow=blockThin;startFill=1;endArrow=blockThin;endFill=1;jettySize=auto;orthogonalLoop=1;strokeColor=#4284F3;strokeWidth=2;fontSize=10;fontColor=#999999;align=center;dashed=0;endSize=4;startSize=4;exitX=1;exitY=0.5;exitDx=0;exitDy=0;entryX=0.5;entryY=0.16;entryDx=0;entryDy=0;entryPerimeter=0;" edge="1" parent="1" source="FHsYfPul3T1H2HVqNf66-531" target="FHsYfPul3T1H2HVqNf66-520">
          <mxGeometry relative="1" as="geometry">
            <Array as="points">
              <mxPoint x="530" y="473" />
              <mxPoint x="530" y="360" />
              <mxPoint x="783" y="360" />
            </Array>
            <mxPoint x="529" y="255" as="sourcePoint" />
            <mxPoint x="609" y="255" as="targetPoint" />
          </mxGeometry>
        </mxCell>
        <mxCell id="FHsYfPul3T1H2HVqNf66-536" style="edgeStyle=orthogonalEdgeStyle;rounded=0;html=1;labelBackgroundColor=none;startArrow=blockThin;startFill=1;endArrow=blockThin;endFill=1;jettySize=auto;orthogonalLoop=1;strokeColor=#4284F3;strokeWidth=2;fontSize=10;fontColor=#999999;align=center;dashed=0;endSize=4;startSize=4;exitX=1;exitY=0.5;exitDx=0;exitDy=0;entryX=0.5;entryY=0.16;entryDx=0;entryDy=0;entryPerimeter=0;" edge="1" parent="1" source="FHsYfPul3T1H2HVqNf66-533" target="FHsYfPul3T1H2HVqNf66-520">
          <mxGeometry relative="1" as="geometry">
            <Array as="points">
              <mxPoint x="500" y="573" />
              <mxPoint x="530" y="573" />
              <mxPoint x="530" y="360" />
              <mxPoint x="783" y="360" />
            </Array>
            <mxPoint x="500" y="482.5" as="sourcePoint" />
            <mxPoint x="793" y="388.03999999999974" as="targetPoint" />
          </mxGeometry>
        </mxCell>
        <mxCell id="FHsYfPul3T1H2HVqNf66-538" value="" style="sketch=0;html=1;dashed=0;whitespace=wrap;fillColor=#2875E2;strokeColor=#ffffff;points=[[0.005,0.63,0],[0.1,0.2,0],[0.9,0.2,0],[0.5,0,0],[0.995,0.63,0],[0.72,0.99,0],[0.5,1,0],[0.28,0.99,0]];shape=mxgraph.kubernetes.icon;prIcon=user" vertex="1" parent="1">
          <mxGeometry x="250" y="479.99999999999994" width="89" height="85.44" as="geometry" />
        </mxCell>
        <mxCell id="FHsYfPul3T1H2HVqNf66-542" style="edgeStyle=orthogonalEdgeStyle;rounded=1;html=1;labelBackgroundColor=none;startArrow=blockThin;startFill=1;endArrow=none;endFill=0;jettySize=auto;orthogonalLoop=1;strokeColor=#82b366;strokeWidth=2;fontSize=10;fontColor=#999999;align=center;dashed=0;endSize=15;startSize=15;entryX=-0.029;entryY=0.48;entryDx=0;entryDy=0;entryPerimeter=0;exitX=0.5;exitY=1;exitDx=0;exitDy=0;exitPerimeter=0;fillColor=#d5e8d4;" edge="1" parent="1" source="FHsYfPul3T1H2HVqNf66-538" target="FHsYfPul3T1H2HVqNf66-533">
          <mxGeometry relative="1" as="geometry">
            <Array as="points">
              <mxPoint x="295" y="610" />
              <mxPoint x="360" y="610" />
              <mxPoint x="360" y="571" />
            </Array>
            <mxPoint x="340" y="520" as="sourcePoint" />
            <mxPoint x="400" y="570" as="targetPoint" />
          </mxGeometry>
        </mxCell>
        <mxCell id="FHsYfPul3T1H2HVqNf66-543" value="" style="strokeColor=#dddddd;fillColor=#ffffff;shadow=1;strokeWidth=1;rounded=1;absoluteArcSize=1;arcSize=2;fontSize=10;fontColor=#999999;align=left;html=1;" vertex="1" parent="1">
          <mxGeometry x="219.5" y="360" width="150" height="44" as="geometry" />
        </mxCell>
        <mxCell id="FHsYfPul3T1H2HVqNf66-544" value="Feedback Form" style="dashed=0;connectable=0;html=1;fillColor=#757575;strokeColor=none;shape=mxgraph.gcp2.frontend_platform_services;part=1;labelPosition=right;verticalLabelPosition=middle;align=left;verticalAlign=middle;spacingLeft=5;fontColor=#000000;fontSize=12;" vertex="1" parent="FHsYfPul3T1H2HVqNf66-543">
          <mxGeometry y="0.5" width="32" height="32" relative="1" as="geometry">
            <mxPoint x="5" y="-16" as="offset" />
          </mxGeometry>
        </mxCell>
        <mxCell id="FHsYfPul3T1H2HVqNf66-545" style="edgeStyle=orthogonalEdgeStyle;rounded=0;html=1;labelBackgroundColor=none;startArrow=none;startFill=0;endArrow=blockThin;endFill=1;jettySize=auto;orthogonalLoop=1;strokeColor=#4284F3;strokeWidth=2;fontSize=10;fontColor=#999999;align=center;dashed=0;endSize=4;startSize=4;exitX=0.5;exitY=0;exitDx=0;exitDy=0;entryX=0;entryY=0.75;entryDx=0;entryDy=0;" edge="1" parent="1" source="FHsYfPul3T1H2HVqNf66-543" target="511">
          <mxGeometry relative="1" as="geometry">
            <Array as="points">
              <mxPoint x="294" y="340" />
              <mxPoint x="294" y="326" />
            </Array>
            <mxPoint x="166.35086862664474" y="440" as="sourcePoint" />
            <mxPoint x="705" y="603" as="targetPoint" />
          </mxGeometry>
        </mxCell>
        <mxCell id="FHsYfPul3T1H2HVqNf66-547" style="edgeStyle=orthogonalEdgeStyle;rounded=0;html=1;labelBackgroundColor=none;startArrow=blockThin;startFill=1;endArrow=blockThin;endFill=1;jettySize=auto;orthogonalLoop=1;strokeColor=#4284F3;strokeWidth=2;fontSize=10;fontColor=#999999;align=center;dashed=0;endSize=4;startSize=4;entryX=0.5;entryY=1;entryDx=0;entryDy=0;exitX=0.5;exitY=0;exitDx=0;exitDy=0;exitPerimeter=0;" edge="1" parent="1" source="FHsYfPul3T1H2HVqNf66-538" target="FHsYfPul3T1H2HVqNf66-543">
          <mxGeometry relative="1" as="geometry">
            <mxPoint x="309" y="250" as="sourcePoint" />
            <mxPoint x="379" y="250" as="targetPoint" />
          </mxGeometry>
        </mxCell>
        <mxCell id="FHsYfPul3T1H2HVqNf66-555" value="New Recipe&lt;br&gt;&amp;amp; Analytics" style="strokeColor=#dddddd;fillColor=#ffffff;shadow=1;strokeWidth=1;rounded=1;absoluteArcSize=1;arcSize=2;labelPosition=center;verticalLabelPosition=middle;align=center;verticalAlign=bottom;spacingLeft=0;fontColor=#999999;fontSize=12;whiteSpace=wrap;spacingBottom=2;html=1;" vertex="1" parent="1">
          <mxGeometry x="1040" y="190" width="70" height="85" as="geometry" />
        </mxCell>
        <mxCell id="FHsYfPul3T1H2HVqNf66-556" value="" style="dashed=0;connectable=0;html=1;fillColor=#757575;strokeColor=none;shape=mxgraph.gcp2.laptop;part=1;" vertex="1" parent="FHsYfPul3T1H2HVqNf66-555">
          <mxGeometry x="0.5" width="50" height="33" relative="1" as="geometry">
            <mxPoint x="-25" y="18.5" as="offset" />
          </mxGeometry>
        </mxCell>
        <mxCell id="FHsYfPul3T1H2HVqNf66-557" style="edgeStyle=orthogonalEdgeStyle;rounded=0;html=1;labelBackgroundColor=none;startArrow=blockThin;startFill=1;endArrow=blockThin;endFill=1;jettySize=auto;orthogonalLoop=1;strokeColor=#4284F3;strokeWidth=2;fontSize=10;fontColor=#999999;align=center;dashed=0;endSize=4;startSize=4;exitX=0.996;exitY=0.547;exitDx=0;exitDy=0;exitPerimeter=0;entryX=0;entryY=0.5;entryDx=0;entryDy=0;" edge="1" parent="1" source="FHsYfPul3T1H2HVqNf66-527" target="FHsYfPul3T1H2HVqNf66-555">
          <mxGeometry relative="1" as="geometry">
            <mxPoint x="309" y="250" as="sourcePoint" />
            <mxPoint x="379" y="250" as="targetPoint" />
          </mxGeometry>
        </mxCell>
        <mxCell id="FHsYfPul3T1H2HVqNf66-561" value="" style="strokeColor=#dddddd;fillColor=#ffffff;shadow=1;strokeWidth=1;rounded=1;absoluteArcSize=1;arcSize=2;fontSize=10;fontColor=#999999;align=left;html=1;" vertex="1" parent="1">
          <mxGeometry x="369" y="250" width="150" height="44" as="geometry" />
        </mxCell>
        <mxCell id="FHsYfPul3T1H2HVqNf66-562" value="User Experience &lt;br&gt;Blog" style="dashed=0;connectable=0;html=1;fillColor=#757575;strokeColor=none;shape=mxgraph.gcp2.frontend_platform_services;part=1;labelPosition=right;verticalLabelPosition=middle;align=left;verticalAlign=middle;spacingLeft=5;fontColor=#000000;fontSize=12;" vertex="1" parent="FHsYfPul3T1H2HVqNf66-561">
          <mxGeometry y="0.5" width="32" height="32" relative="1" as="geometry">
            <mxPoint x="5" y="-16" as="offset" />
          </mxGeometry>
        </mxCell>
      </root>
    </mxGraphModel>
  </diagram>
</mxfile>
